<mxfile host="app.diagrams.net" agent="Mozilla/5.0 (Windows NT 10.0; Win64; x64) AppleWebKit/537.36 (KHTML, like Gecko) Chrome/128.0.0.0 Safari/537.36" version="24.7.12">
  <diagram name="Page-1" id="XTHC8wBETDYpfUe3pU4K">
    <mxGraphModel dx="1306" dy="589" grid="1" gridSize="10" guides="1" tooltips="1" connect="1" arrows="1" fold="1" page="1" pageScale="1" pageWidth="850" pageHeight="1100" math="0" shadow="0">
      <root>
        <mxCell id="0" />
        <mxCell id="1" parent="0" />
        <mxCell id="EuaLSNtYa_kz6bgPuCTz-1" value="" style="rounded=0;whiteSpace=wrap;html=1;" vertex="1" parent="1">
          <mxGeometry x="80" y="120" width="720" height="380" as="geometry" />
        </mxCell>
        <mxCell id="EuaLSNtYa_kz6bgPuCTz-2" value="" style="rounded=0;whiteSpace=wrap;html=1;" vertex="1" parent="1">
          <mxGeometry x="80" y="120" width="720" height="60" as="geometry" />
        </mxCell>
        <mxCell id="EuaLSNtYa_kz6bgPuCTz-4" value="" style="rounded=0;whiteSpace=wrap;html=1;" vertex="1" parent="1">
          <mxGeometry x="100" y="230" width="100" height="100" as="geometry" />
        </mxCell>
        <mxCell id="EuaLSNtYa_kz6bgPuCTz-5" value="" style="rounded=0;whiteSpace=wrap;html=1;" vertex="1" parent="1">
          <mxGeometry x="230" y="230" width="100" height="100" as="geometry" />
        </mxCell>
        <mxCell id="EuaLSNtYa_kz6bgPuCTz-6" value="" style="rounded=0;whiteSpace=wrap;html=1;" vertex="1" parent="1">
          <mxGeometry x="360" y="230" width="100" height="100" as="geometry" />
        </mxCell>
        <mxCell id="EuaLSNtYa_kz6bgPuCTz-7" value="" style="rounded=0;whiteSpace=wrap;html=1;" vertex="1" parent="1">
          <mxGeometry x="490" y="230" width="100" height="100" as="geometry" />
        </mxCell>
        <mxCell id="EuaLSNtYa_kz6bgPuCTz-8" value="" style="rounded=0;whiteSpace=wrap;html=1;" vertex="1" parent="1">
          <mxGeometry x="100" y="350" width="100" height="100" as="geometry" />
        </mxCell>
        <mxCell id="EuaLSNtYa_kz6bgPuCTz-9" value="" style="rounded=0;whiteSpace=wrap;html=1;" vertex="1" parent="1">
          <mxGeometry x="230" y="350" width="100" height="100" as="geometry" />
        </mxCell>
        <mxCell id="EuaLSNtYa_kz6bgPuCTz-10" value="" style="rounded=0;whiteSpace=wrap;html=1;" vertex="1" parent="1">
          <mxGeometry x="360" y="350" width="100" height="100" as="geometry" />
        </mxCell>
        <mxCell id="EuaLSNtYa_kz6bgPuCTz-11" value="create Product" style="rounded=1;whiteSpace=wrap;html=1;" vertex="1" parent="1">
          <mxGeometry x="660" y="190" width="120" height="30" as="geometry" />
        </mxCell>
        <mxCell id="EuaLSNtYa_kz6bgPuCTz-12" value="&lt;font style=&quot;font-size: 18px;&quot;&gt;E-comVerse&lt;/font&gt;" style="text;html=1;align=center;verticalAlign=middle;whiteSpace=wrap;rounded=0;" vertex="1" parent="1">
          <mxGeometry x="330" y="135" width="140" height="30" as="geometry" />
        </mxCell>
        <mxCell id="EuaLSNtYa_kz6bgPuCTz-13" value="Products (count)" style="text;html=1;align=center;verticalAlign=middle;whiteSpace=wrap;rounded=0;" vertex="1" parent="1">
          <mxGeometry x="80" y="190" width="120" height="30" as="geometry" />
        </mxCell>
        <mxCell id="EuaLSNtYa_kz6bgPuCTz-14" value="Order Now" style="text;html=1;align=center;verticalAlign=middle;whiteSpace=wrap;rounded=0;" vertex="1" parent="1">
          <mxGeometry x="120" y="300" width="60" height="30" as="geometry" />
        </mxCell>
        <mxCell id="EuaLSNtYa_kz6bgPuCTz-15" value="" style="rounded=0;whiteSpace=wrap;html=1;" vertex="1" parent="1">
          <mxGeometry x="100" y="230" width="100" height="70" as="geometry" />
        </mxCell>
        <mxCell id="EuaLSNtYa_kz6bgPuCTz-16" value="- Qty +" style="text;html=1;align=center;verticalAlign=middle;whiteSpace=wrap;rounded=0;" vertex="1" parent="1">
          <mxGeometry x="120" y="270" width="60" height="30" as="geometry" />
        </mxCell>
        <mxCell id="EuaLSNtYa_kz6bgPuCTz-17" value="Name&lt;div&gt;desc&lt;/div&gt;" style="text;html=1;align=center;verticalAlign=middle;whiteSpace=wrap;rounded=0;" vertex="1" parent="1">
          <mxGeometry x="100" y="230" width="60" height="30" as="geometry" />
        </mxCell>
        <mxCell id="EuaLSNtYa_kz6bgPuCTz-18" value="" style="rounded=0;whiteSpace=wrap;html=1;" vertex="1" parent="1">
          <mxGeometry x="670" y="230" width="120" height="260" as="geometry" />
        </mxCell>
        <mxCell id="EuaLSNtYa_kz6bgPuCTz-19" value="Create Product" style="rounded=0;whiteSpace=wrap;html=1;" vertex="1" parent="1">
          <mxGeometry x="670" y="450" width="120" height="40" as="geometry" />
        </mxCell>
        <mxCell id="EuaLSNtYa_kz6bgPuCTz-20" value="Name" style="text;html=1;align=center;verticalAlign=middle;whiteSpace=wrap;rounded=0;" vertex="1" parent="1">
          <mxGeometry x="670" y="250" width="60" height="30" as="geometry" />
        </mxCell>
        <mxCell id="EuaLSNtYa_kz6bgPuCTz-21" value="Desc" style="text;html=1;align=center;verticalAlign=middle;whiteSpace=wrap;rounded=0;" vertex="1" parent="1">
          <mxGeometry x="670" y="310" width="60" height="30" as="geometry" />
        </mxCell>
        <mxCell id="EuaLSNtYa_kz6bgPuCTz-22" value="" style="rounded=0;whiteSpace=wrap;html=1;" vertex="1" parent="1">
          <mxGeometry x="670" y="280" width="120" height="30" as="geometry" />
        </mxCell>
        <mxCell id="EuaLSNtYa_kz6bgPuCTz-23" value="" style="rounded=0;whiteSpace=wrap;html=1;" vertex="1" parent="1">
          <mxGeometry x="670" y="340" width="120" height="30" as="geometry" />
        </mxCell>
        <mxCell id="EuaLSNtYa_kz6bgPuCTz-24" value="&lt;div&gt;&lt;span style=&quot;background-color: initial;&quot;&gt;&lt;br&gt;&lt;/span&gt;&lt;/div&gt;&lt;div&gt;&lt;span style=&quot;background-color: initial;&quot;&gt;&lt;br&gt;&lt;/span&gt;&lt;/div&gt;&lt;span style=&quot;background-color: initial;&quot;&gt;&lt;div&gt;&lt;span style=&quot;background-color: initial;&quot;&gt;&lt;br&gt;&lt;/span&gt;&lt;/div&gt;&lt;div&gt;&lt;span style=&quot;background-color: initial;&quot;&gt;&lt;br&gt;&lt;/span&gt;&lt;/div&gt;UserName&amp;nbsp;&lt;/span&gt;&lt;div&gt;&lt;div&gt;&lt;br&gt;&lt;/div&gt;&lt;/div&gt;" style="rounded=0;whiteSpace=wrap;html=1;" vertex="1" parent="1">
          <mxGeometry x="650" y="120" width="90" height="60" as="geometry" />
        </mxCell>
        <mxCell id="EuaLSNtYa_kz6bgPuCTz-25" value="Logout&amp;nbsp;" style="text;html=1;align=center;verticalAlign=middle;whiteSpace=wrap;rounded=0;" vertex="1" parent="1">
          <mxGeometry x="740" y="135" width="60" height="30" as="geometry" />
        </mxCell>
        <mxCell id="EuaLSNtYa_kz6bgPuCTz-26" value="" style="shape=actor;whiteSpace=wrap;html=1;" vertex="1" parent="1">
          <mxGeometry x="680" y="130" width="30" height="30" as="geometry" />
        </mxCell>
      </root>
    </mxGraphModel>
  </diagram>
</mxfile>
